<?xml version="1.0" encoding="UTF-8"?>
<svg width="24px" height="24px" viewBox="0 0 24 24" version="1.1" xmlns="http://www.w3.org/2000/svg">
    <path d="M12,2 C6.36,2 2,6.13 2,11.7 C2,14.61 3.19,17.14 5.14,18.87 C5.3,19.02 5.4,19.21 5.41,19.42 L5.45,20.57 C5.46,20.87 5.76,21.09 6.04,21 L7.31,20.5 C7.5,20.42 7.71,20.42 7.89,20.5 C9.16,20.97 10.54,21.26 12,21.26 C17.64,21.26 22,17.13 22,11.56 C22,6.13 17.64,2 12,2 Z M17.32,9.37 L15.01,13.03 C14.66,13.59 13.9,13.74 13.37,13.37 L10.95,11.71 C10.75,11.57 10.5,11.57 10.3,11.71 L7.44,13.75 C7.09,14 6.65,13.4 6.95,13.02 L9.26,9.37 C9.61,8.81 10.37,8.66 10.9,9.03 L13.32,10.69 C13.52,10.83 13.77,10.83 13.97,10.69 L16.83,8.65 C17.18,8.4 17.62,9 17.32,9.37 Z" fill="#FFFFFF"></path>
</svg> 