<?xml version="1.0" encoding="UTF-8"?>
<svg width="24px" height="24px" viewBox="0 0 24 24" version="1.1" xmlns="http://www.w3.org/2000/svg">
    <path d="M12,2C6.48,2,2,6.48,2,12s4.48,10,10,10s10-4.48,10-10S17.52,2,12,2z M13.4,16.9c-0.23,0.19-0.48,0.35-0.74,0.47 c-0.97,0.45-1.98,0.39-2.95-0.05c-1.39-0.63-2.56-1.57-3.44-2.84c-0.56-0.81-0.95-1.69-1.18-2.67c-0.18-0.76-0.16-1.5,0.12-2.23 c0.2-0.52,0.54-0.94,0.97-1.28c0.19-0.15,0.39-0.28,0.6-0.39c0.36-0.18,0.72-0.09,0.99,0.19c0.2,0.21,0.37,0.44,0.53,0.68 c0.27,0.41,0.54,0.82,0.78,1.25c0.23,0.41,0.19,0.81-0.08,1.17c-0.13,0.17-0.29,0.32-0.43,0.48c-0.14,0.15-0.29,0.29-0.41,0.45 c-0.12,0.16-0.14,0.34-0.06,0.52c0.55,1.2,1.37,2.13,2.6,2.68c0.24,0.11,0.46,0.26,0.71,0.34c0.3,0.09,0.55,0,0.75-0.23 c0.28-0.32,0.55-0.65,0.82-0.98c0.22-0.27,0.5-0.32,0.81-0.18c0.31,0.14,0.61,0.3,0.91,0.46c0.31,0.17,0.61,0.34,0.92,0.51 c0.29,0.16,0.42,0.43,0.35,0.75C14.02,16.08,13.77,16.55,13.4,16.9z M13.93,11.36c-0.03-0.27-0.13-0.47-0.29-0.63 c-0.16-0.16-0.36-0.26-0.63-0.29c-0.11-0.01-0.15-0.06-0.15-0.17c0.01-0.32,0-0.64,0-0.95c0-0.11,0.04-0.16,0.15-0.16 c0.44,0.02,0.84,0.17,1.17,0.5c0.33,0.33,0.48,0.73,0.5,1.17c0,0.11-0.05,0.15-0.16,0.15C14.21,11.36,14.07,11.36,13.93,11.36z M15.5,12.03c-0.11,0-0.16-0.04-0.16-0.15c-0.01-0.44-0.09-0.86-0.27-1.25c-0.23-0.51-0.58-0.91-1.05-1.2 c-0.35-0.22-0.74-0.34-1.15-0.37c-0.11-0.01-0.15-0.06-0.15-0.16c0-0.31,0-0.62,0-0.94c0-0.12,0.05-0.16,0.16-0.15 c0.61,0.03,1.17,0.21,1.67,0.54c0.71,0.47,1.17,1.11,1.4,1.92c0.11,0.39,0.16,0.8,0.14,1.21c0,0.11-0.06,0.15-0.16,0.15 C15.82,12.03,15.66,12.03,15.5,12.03z M17.03,12.03c-0.11,0-0.15-0.04-0.15-0.15c-0.01-0.76-0.15-1.48-0.45-2.17 c-0.38-0.87-0.96-1.6-1.74-2.16c-0.58-0.42-1.24-0.69-1.95-0.83c-0.45-0.09-0.9-0.12-1.36-0.1c-0.11,0-0.15-0.04-0.15-0.15 c0-0.31,0-0.62,0-0.94c0-0.12,0.04-0.16,0.16-0.16c0.8,0.02,1.57,0.18,2.3,0.49c1.05,0.45,1.94,1.14,2.64,2.06 c0.55,0.72,0.92,1.53,1.13,2.42c0.12,0.5,0.17,1.01,0.16,1.52c0,0.11-0.05,0.15-0.16,0.15C17.35,12.03,17.19,12.03,17.03,12.03z" fill="#FFFFFF"></path>
</svg> 