<?xml version="1.0" encoding="UTF-8"?>
<svg width="24px" height="24px" viewBox="0 0 24 24" version="1.1" xmlns="http://www.w3.org/2000/svg">
    <path d="M12,2 C6.48,2 2,6.48 2,12 C2,13.85 2.49,15.55 3.35,17.01 L2.05,21.23 C1.95,21.68 2.32,22.05 2.77,21.95 L7.09,20.65 C8.55,21.51 10.25,22 12,22 C17.52,22 22,17.52 22,12 C22,6.48 17.52,2 12,2 Z M17,15.01 L15.01,17 C14.54,17.47 13.88,17.66 13.25,17.5 C11.22,16.99 9.36,15.59 8.09,13.83 C7.31,12.69 6.84,11.37 6.69,10 C6.61,9.23 6.87,8.46 7.4,7.93 L9.39,5.94 C9.78,5.55 10.42,5.55 10.81,5.94 L12.69,7.82 C13.08,8.21 13.08,8.85 12.69,9.24 L11.91,10.02 C11.96,10.18 12.08,10.44 12.35,10.82 C12.88,11.54 13.68,12.34 14.4,12.87 C14.78,13.14 15.04,13.26 15.2,13.31 L15.98,12.53 C16.37,12.14 17.01,12.14 17.4,12.53 L19.28,14.41 C19.67,14.8 19.67,15.44 19.28,15.83 L17,15.01 Z" fill="#FFFFFF"></path>
</svg> 